<svg xmlns="http://www.w3.org/2000/svg" viewBox="0 0 640 448">
  <defs>
    <style>
      .green { fill: #009739; }
      .yellow { fill: #FEDD00; }
      .blue { fill: #012169; }
      .white { fill: #FFFFFF; }
      .text { font-family: Arial, sans-serif; font-size: 14px; font-weight: bold; }
    </style>
  </defs>
  
  <!-- Background green -->
  <rect width="640" height="448" class="green"/>
  
  <!-- Yellow diamond -->
  <path class="yellow" d="M320 56 L544 224 L320 392 L96 224 Z"/>
  
  <!-- Blue circle -->
  <circle cx="320" cy="224" r="72" class="blue"/>
  
  <!-- Stars pattern -->
  <g class="white">
    <!-- Main constellation stars -->
    <circle cx="280" cy="200" r="1.5"/>
    <circle cx="300" cy="190" r="1.2"/>
    <circle cx="320" cy="185" r="1.8"/>
    <circle cx="340" cy="190" r="1.2"/>
    <circle cx="360" cy="200" r="1.5"/>
    <circle cx="290" cy="220" r="1"/>
    <circle cx="310" cy="210" r="1.3"/>
    <circle cx="330" cy="210" r="1.3"/>
    <circle cx="350" cy="220" r="1"/>
    <circle cx="285" cy="240" r="1.2"/>
    <circle cx="305" cy="235" r="1"/>
    <circle cx="325" cy="230" r="1.4"/>
    <circle cx="345" cy="235" r="1"/>
    <circle cx="365" cy="240" r="1.2"/>
    <circle cx="295" cy="255" r="1"/>
    <circle cx="315" cy="250" r="1.1"/>
    <circle cx="335" cy="250" r="1.1"/>
    <circle cx="355" cy="255" r="1"/>
    
    <!-- Additional smaller stars -->
    <circle cx="275" cy="215" r="0.8"/>
    <circle cx="365" cy="215" r="0.8"/>
    <circle cx="290" cy="195" r="0.7"/>
    <circle cx="350" cy="195" r="0.7"/>
    <circle cx="270" cy="235" r="0.9"/>
    <circle cx="370" cy="235" r="0.9"/>
  </g>
  
  <!-- Banner with "ORDEM E PROGRESSO" -->
  <path class="white" d="M260 224 Q320 210 380 224 Q320 238 260 224" fill="#FFFFFF" opacity="0.9"/>
  <text x="320" y="228" text-anchor="middle" class="text blue" font-size="10">ORDEM E PROGRESSO</text>
</svg>